<svg width="133" height="59" viewBox="0 0 133 59" fill="none" xmlns="http://www.w3.org/2000/svg">
<path d="M34.6641 37.7266H41.7344V45.3438H34.6641V58H25.1719V45.3438H0.601562L0.328125 39.5625L24.8594 1.125H34.6641V37.7266ZM10.2891 37.7266H25.1719V13.9766L24.4688 15.2266L10.2891 37.7266ZM85.0938 34.0547C85.0938 42.2318 83.5573 48.4036 80.4844 52.5703C77.4375 56.7109 72.7891 58.7812 66.5391 58.7812C60.3932 58.7812 55.7578 56.763 52.6328 52.7266C49.5339 48.6641 47.9453 42.6615 47.8672 34.7188V24.875C47.8672 16.6979 49.3906 10.5651 52.4375 6.47656C55.5104 2.38802 60.1849 0.34375 66.4609 0.34375C72.6849 0.34375 77.3203 2.33594 80.3672 6.32031C83.4401 10.3047 85.0156 16.2682 85.0938 24.2109V34.0547ZM75.6016 23.4297C75.6016 18.0911 74.8724 14.1849 73.4141 11.7109C71.9557 9.21094 69.638 7.96094 66.4609 7.96094C63.362 7.96094 61.0833 9.14583 59.625 11.5156C58.1667 13.8594 57.3984 17.5312 57.3203 22.5312V35.4219C57.3203 40.7344 58.0625 44.6927 59.5469 47.2969C61.0312 49.901 63.362 51.2031 66.5391 51.2031C69.5859 51.2031 71.8385 50.0052 73.2969 47.6094C74.7552 45.1875 75.5234 41.4115 75.6016 36.2812V23.4297ZM125.602 37.7266H132.672V45.3438H125.602V58H116.109V45.3438H91.5391L91.2656 39.5625L115.797 1.125H125.602V37.7266ZM101.227 37.7266H116.109V13.9766L115.406 15.2266L101.227 37.7266Z" fill="white"/>
</svg>
