<svg width="107" height="108" viewBox="0 0 107 108" fill="none" xmlns="http://www.w3.org/2000/svg">
<path d="M53.3333 13.3333C61.0667 13.3333 67.3333 19.6 67.3333 27.3333C67.3333 35.0666 61.0667 41.3333 53.3333 41.3333C45.6 41.3333 39.3333 35.0666 39.3333 27.3333C39.3333 19.6 45.6 13.3333 53.3333 13.3333ZM53.3333 73.3333C73.1333 73.3333 94 83.0666 94 87.3333V94.6666H12.6667V87.3333C12.6667 83.0666 33.5333 73.3333 53.3333 73.3333ZM53.3333 0.666626C38.6 0.666626 26.6667 12.6 26.6667 27.3333C26.6667 42.0666 38.6 54 53.3333 54C68.0667 54 80 42.0666 80 27.3333C80 12.6 68.0667 0.666626 53.3333 0.666626ZM53.3333 60.6666C35.5333 60.6666 0 69.6 0 87.3333V107.333H106.667V87.3333C106.667 69.6 71.1333 60.6666 53.3333 60.6666Z" fill="white"/>
</svg>
