<svg width="115" height="135" viewBox="0 0 115 135" fill="none" xmlns="http://www.w3.org/2000/svg">
<path d="M76.6667 0H38.3333V12.7778H76.6667V0ZM51.1111 83.0556H63.8889V44.7222H51.1111V83.0556ZM102.414 40.825L111.486 31.7528C108.739 28.4944 105.736 25.4278 102.478 22.7444L93.4056 31.8167C83.5028 23.8944 71.0444 19.1667 57.5 19.1667C25.7472 19.1667 0 44.9139 0 76.6667C0 108.419 25.6833 134.167 57.5 134.167C89.3167 134.167 115 108.419 115 76.6667C115 63.1222 110.272 50.6639 102.414 40.825ZM57.5 121.389C32.775 121.389 12.7778 101.392 12.7778 76.6667C12.7778 51.9417 32.775 31.9444 57.5 31.9444C82.225 31.9444 102.222 51.9417 102.222 76.6667C102.222 101.392 82.225 121.389 57.5 121.389Z" fill="white"/>
</svg>
