<?xml version="1.0" encoding="utf-8"?>
<!-- Generator: Adobe Illustrator 16.0.0, SVG Export Plug-In . SVG Version: 6.00 Build 0)  -->
<!DOCTYPE svg PUBLIC "-//W3C//DTD SVG 1.1//EN" "http://www.w3.org/Graphics/SVG/1.1/DTD/svg11.dtd">
<svg version="1.1" id="Layer_1" xmlns="http://www.w3.org/2000/svg" xmlns:xlink="http://www.w3.org/1999/xlink" x="0px" y="0px"
	 width="30px" height="30px" viewBox="-10 -10 30 30" enable-background="new -10 -10 30 30" xml:space="preserve">
<g>
	<path fill="#FFFFFF" d="M13.365-0.534v12.347c0,1.871-1.532,3.402-3.408,3.402H3.744c-0.92,0-1.788-0.367-2.426-1.012L-5.365,7.41
		c0,0,1.073-1.049,1.107-1.066c0.187-0.161,0.417-0.246,0.672-0.246c0.188,0,0.357,0.051,0.51,0.137
		c0.035,0.008,3.67,2.094,3.67,2.094V-1.811c0-0.706,0.569-1.276,1.277-1.276c0.706,0,1.277,0.57,1.277,1.276v5.96H4v-8.088
		C4-4.645,4.57-5.215,5.276-5.215s1.277,0.57,1.277,1.276v8.088h0.85v-7.236c0-0.707,0.571-1.277,1.277-1.277
		c0.707,0,1.276,0.57,1.276,1.277v7.236h0.854v-4.684c0-0.706,0.568-1.276,1.277-1.276C12.794-1.811,13.365-1.24,13.365-0.534z"/>
</g>
</svg>
