<?xml version="1.0" encoding="utf-8"?>
<!-- Generator: Adobe Illustrator 16.0.0, SVG Export Plug-In . SVG Version: 6.00 Build 0)  -->
<!DOCTYPE svg PUBLIC "-//W3C//DTD SVG 1.1 Tiny//EN" "http://www.w3.org/Graphics/SVG/1.1/DTD/svg11-tiny.dtd">
<svg version="1.1" baseProfile="tiny" id="Layer_2" xmlns="http://www.w3.org/2000/svg" xmlns:xlink="http://www.w3.org/1999/xlink"
	 x="0px" y="0px" width="228px" height="104px" viewBox="0 0 228 104" xml:space="preserve">
<g>
	<g>
		<path fill="#B67CD1" d="M3.46,8.669c0-4.365,2.432-6.548,7.295-6.548c4.863,0,7.295,2.183,7.295,6.548
			c0,2.081-0.608,3.699-1.824,4.856c-1.216,1.158-3.04,1.736-5.471,1.736C5.892,15.261,3.46,13.063,3.46,8.669z M17.435,70.5H4.031
			V21.369h13.403V70.5z"/>
		<path fill="#B67CD1" d="M60.28,59.95c-5.42,0-9.49-1.81-12.22-5.45c-2.72-3.63-4.08-9.03-4.08-16.21s1.37-12.59,4.13-16.24
			c0.08-0.11,0.17-0.22,0.27-0.33c0.18-0.25,0.39-0.49,0.61-0.72c0.08-0.09,0.16-0.17,0.25-0.25c-4.21-1.7-7.37-5.45-8.24-10.02
			c-1.21,0.87-2.33,1.86-3.37,2.97c-5.29,5.64-7.93,13.81-7.93,24.5c0,10.69,2.63,18.71,7.91,24.42C42.88,68.33,50.44,71,60.28,71
			H61V59.94C60.76,59.95,60.52,59.95,60.28,59.95z"/>
		<path fill="#B67CD1" d="M137.933,70.5l-1.802-6.284h-0.703c-1.436,2.285-3.472,4.05-6.108,5.295s-5.64,1.868-9.009,1.868
			c-5.771,0-10.122-1.545-13.052-4.636c-2.93-3.091-4.395-7.537-4.395-13.337V21.369h13.403v28.696c0,3.545,0.63,6.204,1.89,7.976
			c1.26,1.773,3.267,2.659,6.021,2.659c3.75,0,6.46-1.252,8.13-3.757s2.505-6.658,2.505-12.458V21.369h13.403V70.5H137.933z"/>
		<path fill="#B67CD1" d="M161.707,8.669c0-4.365,2.432-6.548,7.295-6.548s7.295,2.183,7.295,6.548c0,2.081-0.608,3.699-1.823,4.856
			c-1.217,1.158-3.04,1.736-5.472,1.736C164.139,15.261,161.707,13.063,161.707,8.669z M175.682,70.5h-13.403V21.369h13.403V70.5z"
			/>
		<path fill="#B67CD1" d="M223.934,70.5H185.13v-7.91l22.764-30.981h-21.401V21.369h36.65v8.701l-22.148,30.19h22.939V70.5z"/>
	</g>
	<g>
		<circle fill="#fff" cx="74.219" cy="96.111" r="6.979"/>
		<path fill="#fff" d="M70,5.356v13.577c-2.792-1.267-5.583-1.835-8.624-1.587c-2.917,0.238-8.591,1.34-13.266,4.704
			c-3.275-4.288-4.985-5.321-8.108-10.556c0,0,4.714-3.199,7.061-3.994c2.722-0.952,5.508-1.662,8.688-2.144
			c1.18-0.19,2.438-0.374,3.688-0.486c2.374-0.235,4.965,0,7.563,0C67.292,4.871,69,5.345,70,5.356z"/>
		<path fill="#fff" d="M91.565,38.414c0,7.817-1.386,14.362-4.157,19.646c-2.771,5.294-6.845,9.161-12.201,11.612l3.826,17.857
			l-12.667,0.254L60.98,72H61V59.94c10-0.331,15.957-6.926,15.957-21.526c0-9.534-1.957-16.038-6.957-19.48V5.356
			c5,1.345,9.971,3.909,13.456,7.704C88.863,18.933,91.565,27.381,91.565,38.414z"/>
	</g>
</g>
</svg>
