<?xml version="1.0" encoding="utf-8"?>
<!-- Generator: Adobe Illustrator 23.0.3, SVG Export Plug-In . SVG Version: 6.00 Build 0)  -->
<svg version="1.1" id="Layer_1" xmlns="http://www.w3.org/2000/svg" xmlns:xlink="http://www.w3.org/1999/xlink" x="0px" y="0px"
	 viewBox="0 0 228 104" style="enable-background:new 0 0 228 104;" xml:space="preserve">
<style type="text/css">
	.st0{fill:#B67CD1;}
	.st1{fill:#FFFFFF;}
</style>
<g>
	<g>
		<path class="st0" d="M3.5,8.7c0-4.4,2.4-6.5,7.3-6.5S18,4.3,18,8.7c0,2.1-0.6,3.7-1.8,4.9c-1.2,1.2-3,1.7-5.5,1.7
			C5.9,15.3,3.5,13.1,3.5,8.7z M17.4,70.5H4V21.4h13.4L17.4,70.5L17.4,70.5z"/>
		<path class="st0" d="M60.3,60c-5.4,0-9.5-1.8-12.2-5.5c-2.7-3.6-4.1-9-4.1-16.2s1.4-12.6,4.1-16.2c0.1-0.1,0.2-0.2,0.3-0.3
			c0.2-0.3,0.4-0.5,0.6-0.7c0.1-0.1,0.2-0.2,0.3-0.3c-4.2-1.7-7.4-5.4-8.2-10c-1.2,0.9-2.3,1.9-3.4,3c-5.3,5.6-7.9,13.8-7.9,24.5
			s2.6,18.7,7.9,24.4c5.3,5.7,12.8,8.4,22.7,8.4H61V59.9C60.8,60,60.5,60,60.3,60z"/>
		<path class="st0" d="M137.9,70.5l-1.8-6.3h-0.7c-1.4,2.3-3.5,4.1-6.1,5.3s-5.6,1.9-9,1.9c-5.8,0-10.1-1.5-13.1-4.6
			c-2.9-3.1-4.4-7.5-4.4-13.3v-32h13.4v28.7c0,3.5,0.6,6.2,1.9,8c1.3,1.8,3.3,2.7,6,2.7c3.8,0,6.5-1.3,8.1-3.8s2.5-6.7,2.5-12.5
			V21.4h13.4v49.1H137.9z"/>
		<path class="st0" d="M161.7,8.7c0-4.4,2.4-6.5,7.3-6.5s7.3,2.2,7.3,6.5c0,2.1-0.6,3.7-1.8,4.9c-1.2,1.2-3,1.7-5.5,1.7
			C164.1,15.3,161.7,13.1,161.7,8.7z M175.7,70.5h-13.4V21.4h13.4V70.5z"/>
		<path class="st0" d="M223.9,70.5h-38.8v-7.9l22.8-31h-21.4V21.4h36.6v8.7L201,60.3h22.9V70.5z"/>
	</g>
	<g>
		<circle class="st1" cx="74.2" cy="96.1" r="7"/>
		<path class="st1" d="M91.6,38.4c0,7.8-1.4,14.4-4.2,19.7c-2.8,5.3-6.8,9.2-12.2,11.6L79,87.5l-12.7,0.3L61,72h0V59.9
			c10-0.3,16-6.9,16-21.5c0-9.5-2-16-7-19.5c-2.8-1.3-5.6-1.8-8.6-1.6c-2.9,0.2-8.6,1.3-13.3,4.7c-3.3-4.3-5-5.3-8.1-10.6
			c0,0,4.7-3.2,7.1-4c2.7-1,5.5-1.7,8.7-2.1c1.2-0.2,2.4-0.4,3.7-0.5c2.4-0.2,5,0,7.6,0c0.3,0,2,0.5,3,0.5c5,1.3,10,3.9,13.5,7.7
			C88.9,18.9,91.6,27.4,91.6,38.4z"/>
	</g>
</g>
</svg>
