<?xml version="1.0" encoding="utf-8"?>
<!-- Generator: Adobe Illustrator 16.0.0, SVG Export Plug-In . SVG Version: 6.00 Build 0)  -->
<!DOCTYPE svg PUBLIC "-//W3C//DTD SVG 1.1//EN" "http://www.w3.org/Graphics/SVG/1.1/DTD/svg11.dtd">
<svg version="1.1" id="Layer_1" xmlns="http://www.w3.org/2000/svg" xmlns:xlink="http://www.w3.org/1999/xlink" x="0px" y="0px"
	 width="237.149px" height="76.043px" viewBox="0 0 237.149 76.043" enable-background="new 0 0 237.149 76.043"
	 xml:space="preserve">
<g>
	<g>
		<path fill="#FFFFFF" d="M3.261,48.554c0-1.869,0.489-3.456,1.467-4.761s2.315-2.305,4.011-3c0.217-0.087,0.369-0.021,0.457,0.195
			c0.086,0.218,0.065,0.414-0.065,0.587c-0.783,0.435-1.402,1.108-1.859,2.022c-0.457,0.912-0.685,2.021-0.685,3.326
			c0,2.652,0.978,4.739,2.935,6.261c1.957,1.522,4.5,2.282,7.63,2.282c4.087,0,7.011-0.804,8.772-2.412
			c1.761-1.609,2.642-3.719,2.642-6.327c0-2.435-0.5-4.575-1.5-6.425c-1-1.847-2.098-3.586-3.293-5.217
			c-1.196-1.63-2.294-3.271-3.293-4.924c-1.001-1.652-1.5-3.522-1.5-5.609c0-1.217,0.271-2.391,0.815-3.522
			c0.543-1.13,1.305-2.141,2.283-3.033c0.979-0.891,2.141-1.598,3.489-2.12c1.347-0.521,2.826-0.782,4.435-0.782
			c2.218,0,3.967,0.468,5.25,1.402c1.282,0.936,1.924,2.055,1.924,3.359c0,0.74-0.316,1.642-0.946,2.707
			c-0.631,1.066-1.271,1.989-1.924,2.771c-0.174,0.088-0.326,0.065-0.457-0.065s-0.174-0.282-0.13-0.457
			c0.217-0.348,0.401-0.771,0.554-1.272c0.152-0.499,0.229-1.054,0.229-1.663c0-0.695-0.153-1.358-0.457-1.989
			c-0.305-0.63-0.74-1.174-1.305-1.63c-0.565-0.457-1.218-0.826-1.957-1.109c-0.74-0.282-1.522-0.424-2.348-0.424
			c-2.174,0-3.761,0.521-4.761,1.565c-1.001,1.043-1.5,2.392-1.5,4.043c0,1.305,0.25,2.534,0.75,3.685
			c0.499,1.152,1.119,2.305,1.858,3.457c0.739,1.153,1.533,2.305,2.381,3.457c0.848,1.152,1.641,2.348,2.38,3.587
			c0.739,1.239,1.358,2.544,1.859,3.913c0.5,1.369,0.75,2.859,0.75,4.468c0,1.696-0.424,3.284-1.272,4.761
			c-0.848,1.479-2.011,2.772-3.489,3.881c-1.479,1.109-3.196,1.979-5.152,2.609s-4.066,0.945-6.326,0.945
			c-4.131,0-7.272-0.805-9.425-2.413C4.337,53.076,3.261,51.032,3.261,48.554z"/>
		<path fill="#FFFFFF" d="M47.936,40.727c0.217,0.088,0.304,0.207,0.261,0.359c-0.043,0.152-0.239,0.271-0.587,0.359
			c-0.652,0-1.402,0.021-2.25,0.064c-0.848,0.044-1.751,0.109-2.707,0.195c-0.871,2.131-1.588,4.207-2.152,6.229
			c-0.566,2.022-0.848,3.664-0.848,4.925c0,1.479,0.565,2.218,1.696,2.218c1.13,0,2.391-0.979,3.783-2.936
			c0.131-0.086,0.25-0.086,0.359,0c0.108,0.088,0.141,0.24,0.098,0.457c-0.74,1.218-1.674,2.272-2.804,3.163
			c-1.131,0.892-2.24,1.337-3.326,1.337c-1.131,0-1.968-0.271-2.511-0.815c-0.544-0.543-0.815-1.293-0.815-2.25
			c0-1.261,0.304-3,0.913-5.218c0.608-2.217,1.391-4.478,2.348-6.783c-1.131,0.131-2.175,0.305-3.13,0.521
			c-0.218-0.042-0.272-0.151-0.163-0.325c0.108-0.173,0.304-0.358,0.587-0.555c0.282-0.196,0.62-0.368,1.011-0.521
			c0.392-0.151,0.76-0.229,1.109-0.229c0.173,0,0.348,0,0.521,0c0.173,0,0.348-0.021,0.522-0.065
			c0.564-1.26,1.151-2.478,1.761-3.652c0.608-1.174,1.216-2.239,1.826-3.196c0.261-0.303,0.619-0.576,1.076-0.815
			c0.457-0.239,0.902-0.424,1.337-0.555c0.434-0.13,0.792-0.206,1.076-0.228c0.282-0.021,0.401,0.055,0.358,0.228
			c-0.74,1.131-1.467,2.392-2.185,3.783c-0.718,1.392-1.402,2.849-2.055,4.37c0.826-0.043,1.663-0.066,2.511-0.066
			C46.403,40.727,47.196,40.727,47.936,40.727z"/>
		<path fill="#FFFFFF" d="M50.479,57.098c-1.826,0-2.739-1-2.739-3c0-0.695,0.076-1.5,0.229-2.413
			c0.152-0.913,0.391-1.858,0.717-2.837s0.706-1.967,1.142-2.968c0.434-1,0.956-1.957,1.565-2.87
			c-0.479,0.305-0.936,0.619-1.37,0.945c-0.435,0.326-0.826,0.664-1.174,1.012c-0.13,0.088-0.25,0.055-0.359-0.098
			c-0.109-0.152-0.12-0.294-0.032-0.424c0.739-0.783,1.793-1.588,3.163-2.414c1.37-0.825,2.684-1.477,3.946-1.956
			c0.217,0,0.38,0.055,0.489,0.163c0.108,0.109,0.119,0.25,0.033,0.424c-1.392,1.826-2.511,3.805-3.359,5.936
			c-0.848,2.131-1.272,4.195-1.272,6.195c0,1.262,0.391,1.892,1.174,1.892c0.564,0,1.261-0.38,2.087-1.142
			c0.825-0.76,1.695-1.761,2.608-3s1.836-2.642,2.772-4.207c0.935-1.564,1.793-3.152,2.576-4.761
			c0.13-0.261,0.511-0.522,1.142-0.782c0.63-0.262,1.271-0.392,1.924-0.392s0.848,0.174,0.587,0.521
			c-0.609,1.132-1.141,2.185-1.598,3.163s-0.838,1.947-1.142,2.902c-0.305,0.957-0.533,1.924-0.685,2.902
			c-0.153,0.979-0.229,2.055-0.229,3.229c0,1.393,0.369,2.087,1.109,2.087c0.739,0,1.565-0.651,2.479-1.956
			c0.13-0.087,0.261-0.087,0.391,0c0.13,0.088,0.173,0.218,0.13,0.391c-0.74,1.131-1.555,1.99-2.446,2.576
			c-0.892,0.588-1.707,0.881-2.446,0.881c-1.826,0-2.739-1.064-2.739-3.195c0-2.218,0.392-4.413,1.174-6.588
			c-1.653,3-3.392,5.381-5.218,7.142S51.74,57.098,50.479,57.098z"/>
		<path fill="#FFFFFF" d="M107.612,7.791c0.652,0,1.184,0.174,1.598,0.521c0.413,0.349,0.706,0.805,0.88,1.37
			c0.173,0.565,0.217,1.207,0.13,1.924c-0.087,0.718-0.305,1.425-0.652,2.12c-0.088,0.087-0.196,0.12-0.326,0.098
			c-0.13-0.021-0.218-0.119-0.261-0.293c0.086-0.652-0.088-1.142-0.522-1.468c-0.435-0.326-1.043-0.489-1.826-0.489
			c-2.348,0-4.609,0.783-6.783,2.348c-2.174,1.565-4.229,3.968-6.163,7.207c-1.935,3.24-3.718,7.349-5.348,12.327
			c-1.63,4.979-3.098,10.903-4.402,17.773c-0.218,0.956-0.24,1.771-0.065,2.445c0.173,0.674,0.5,1.011,0.979,1.011
			c0.478,0,0.935-0.196,1.37-0.587c0.434-0.392,0.825-0.891,1.174-1.5c0.087-0.087,0.206-0.087,0.359,0
			c0.152,0.088,0.206,0.218,0.163,0.391c-0.218,0.436-0.533,0.893-0.946,1.37c-0.414,0.479-0.87,0.925-1.37,1.337
			c-0.5,0.414-1.022,0.75-1.565,1.012c-0.544,0.26-1.033,0.391-1.467,0.391c-0.957,0-1.63-0.348-2.022-1.043
			c-0.391-0.695-0.544-1.479-0.457-2.349c0.087-0.739,0.196-1.435,0.326-2.087s0.282-1.348,0.457-2.087
			c-0.87,1.87-2.087,3.489-3.652,4.858c-1.565,1.37-3.109,2.273-4.631,2.707c-1,0-1.805-0.369-2.413-1.109
			c-0.609-0.738-0.913-1.695-0.913-2.869c0-1.695,0.304-3.314,0.913-4.859c0.608-1.543,1.435-2.902,2.479-4.076
			s2.283-2.107,3.718-2.805c1.435-0.694,2.978-1.043,4.63-1.043c0.913,0,1.717,0.152,2.413,0.457
			c0.783-2.349,1.717-4.794,2.805-7.338c1.086-2.543,2.283-5.032,3.587-7.468c1.305-2.435,2.685-4.761,4.142-6.979
			c1.457-2.218,2.945-4.152,4.468-5.805c1.521-1.652,3.065-2.968,4.63-3.946C104.612,8.28,106.133,7.791,107.612,7.791z
			 M74.676,54.555c0.478,0,1.043-0.25,1.696-0.75c0.652-0.5,1.326-1.175,2.021-2.022c0.695-0.849,1.347-1.826,1.957-2.935
			c0.608-1.109,1.13-2.293,1.565-3.555c0.173-0.392,0.326-0.793,0.457-1.207c0.13-0.412,0.239-0.814,0.326-1.207
			c-0.174-0.521-0.512-0.901-1.011-1.141c-0.5-0.238-1.055-0.359-1.663-0.359c-0.913,0-1.805,0.272-2.674,0.816
			c-0.87,0.543-1.63,1.293-2.283,2.25s-1.185,2.086-1.598,3.391c-0.414,1.305-0.62,2.74-0.62,4.305c0,0.696,0.163,1.271,0.489,1.729
			C73.665,54.326,74.11,54.555,74.676,54.555z"/>
		<path fill="#FFFFFF" d="M104.741,42.293c0.173-0.435,0.652-0.858,1.435-1.272c0.782-0.413,1.478-0.619,2.087-0.619
			c0.391,0,0.543,0.153,0.457,0.456c-0.957,2.697-1.903,5.316-2.837,7.859c-0.936,2.543-1.903,5.164-2.902,7.859
			c-2.175,5.609-4.881,9.738-8.12,12.392c-3.24,2.651-6.685,3.979-10.337,3.979c-2.521,0-4.5-0.587-5.935-1.761
			c-1.435-1.174-2.152-2.588-2.152-4.24c0-0.956,0.326-1.891,0.978-2.804c0.652-0.913,1.544-1.565,2.674-1.956
			c0.174-0.045,0.305,0,0.391,0.13c0.088,0.13,0.088,0.261,0,0.392c-0.695,0.738-1.043,1.673-1.043,2.805
			c0,1.826,0.565,3.303,1.696,4.435c1.131,1.13,2.762,1.696,4.892,1.696c1.522,0,2.913-0.24,4.174-0.719
			c1.261-0.479,2.446-1.326,3.555-2.543c1.109-1.218,2.185-2.848,3.229-4.892s2.108-4.609,3.196-7.696
			c0.522-1.435,0.988-2.717,1.402-3.848c0.413-1.131,0.836-2.369,1.271-3.718c-0.826,1.305-1.674,2.501-2.543,3.587
			c-0.87,1.088-1.75,2.021-2.642,2.805c-0.892,0.783-1.75,1.393-2.576,1.826c-0.826,0.436-1.587,0.652-2.283,0.652
			c-0.87,0-1.5-0.261-1.891-0.783c-0.392-0.521-0.587-1.238-0.587-2.152c0-1.521,0.314-3.271,0.945-5.25
			c0.63-1.978,1.489-3.881,2.576-5.707c-0.479,0.305-0.913,0.588-1.304,0.849s-0.761,0.565-1.109,0.913
			c-0.13,0.088-0.25,0.055-0.358-0.098c-0.109-0.152-0.121-0.294-0.033-0.424c0.304-0.305,0.717-0.642,1.239-1.012
			c0.521-0.369,1.086-0.728,1.696-1.076c0.608-0.348,1.228-0.695,1.858-1.043c0.63-0.348,1.25-0.652,1.859-0.913
			c0.434,0,0.608,0.195,0.522,0.587c-0.696,0.87-1.316,1.838-1.859,2.902c-0.544,1.066-1.011,2.131-1.402,3.195
			c-0.391,1.066-0.685,2.12-0.88,3.164c-0.196,1.043-0.293,1.979-0.293,2.805c0,1.217,0.391,1.826,1.174,1.826
			c0.695,0,1.521-0.436,2.479-1.305c0.956-0.869,1.901-1.945,2.837-3.229c0.935-1.282,1.804-2.652,2.609-4.109
			C103.687,44.782,104.306,43.467,104.741,42.293z"/>
		<path fill="#FFFFFF" d="M109.958,56.511c1.957-7.478,4.207-14.218,6.75-20.218c2.544-6,5.228-11.109,8.055-15.327
			c2.825-4.217,5.685-7.468,8.576-9.75s5.642-3.424,8.251-3.424c1.086,0,1.945,0.25,2.576,0.75c0.629,0.5,1.064,1.108,1.305,1.826
			c0.238,0.717,0.27,1.49,0.098,2.315c-0.174,0.827-0.5,1.565-0.979,2.218c-0.131,0.13-0.262,0.174-0.391,0.13
			c-0.131-0.043-0.197-0.152-0.197-0.326c0.217-0.869-0.021-1.696-0.717-2.479c-0.695-0.782-1.805-1.174-3.326-1.174
			c-2.348,0-4.576,0.631-6.686,1.892c-2.109,1.261-4.164,3.359-6.163,6.293c-2.001,2.935-3.957,6.827-5.87,11.675
			c-1.914,4.849-3.87,10.881-5.87,18.098c0.652-1.174,1.402-2.282,2.25-3.326c0.848-1.043,1.772-1.956,2.772-2.738
			c1-0.783,2.064-1.402,3.195-1.859s2.305-0.685,3.522-0.685c0.522,0,0.901,0.13,1.142,0.392c0.238,0.26,0.358,0.564,0.358,0.912
			c0,0.566-0.195,1.197-0.587,1.893c-0.913,1.608-1.652,3.26-2.217,4.956c-0.566,1.696-0.849,3.239-0.849,4.631
			c0,0.609,0.065,1.108,0.196,1.5c0.13,0.392,0.369,0.587,0.717,0.587c0.434,0,0.913-0.229,1.436-0.686
			c0.521-0.456,0.955-0.967,1.304-1.531c0.13-0.088,0.261-0.076,0.392,0.031c0.131,0.109,0.174,0.229,0.131,0.359
			c-0.566,0.957-1.359,1.805-2.381,2.543c-1.022,0.74-1.947,1.109-2.771,1.109c-0.74,0-1.349-0.206-1.826-0.619
			c-0.479-0.413-0.719-1.119-0.719-2.12c0-0.782,0.076-1.619,0.229-2.511c0.152-0.891,0.348-1.771,0.588-2.642
			c0.238-0.869,0.521-1.729,0.848-2.576c0.326-0.849,0.685-1.62,1.076-2.315c0.217-0.521,0.326-0.891,0.326-1.109
			c0-0.391-0.219-0.586-0.652-0.586c-0.826,0-1.719,0.315-2.674,0.945c-0.957,0.631-1.892,1.522-2.805,2.674
			c-0.913,1.152-1.794,2.533-2.642,4.142c-0.848,1.609-1.577,3.392-2.185,5.349c-0.087,0.305-0.435,0.609-1.043,0.912
			c-0.609,0.305-1.283,0.457-2.022,0.457C110.045,57.098,109.871,56.902,109.958,56.511z"/>
		<path fill="#FFFFFF" d="M144.981,43.662c0,2.479-3.283,4.174-9.848,5.088c-0.045,0.435-0.078,0.869-0.1,1.304
			s-0.031,0.892-0.031,1.37c0,1.131,0.26,2,0.781,2.608c0.523,0.609,1.348,0.913,2.479,0.913c0.826,0,1.674-0.238,2.545-0.717
			c0.869-0.479,1.564-1.087,2.086-1.826c0.174-0.088,0.305-0.055,0.393,0.098c0.086,0.152,0.107,0.315,0.064,0.488
			c-0.871,1.132-1.967,2.099-3.293,2.902c-1.328,0.806-2.752,1.207-4.273,1.207s-2.619-0.38-3.293-1.142
			c-0.674-0.76-1.011-1.836-1.011-3.228c0-1.348,0.282-2.75,0.849-4.207c0.564-1.457,1.293-2.793,2.184-4.012
			c0.891-1.217,1.914-2.206,3.066-2.967c1.15-0.761,2.314-1.142,3.488-1.142s2.121,0.337,2.838,1.011
			C144.622,42.087,144.981,42.837,144.981,43.662z M139.308,42.097c-1.002,0-1.859,0.468-2.576,1.402
			c-0.719,0.936-1.207,2.381-1.469,4.337c2.088-0.217,3.631-0.619,4.631-1.206s1.5-1.315,1.5-2.185c0-0.652-0.195-1.207-0.586-1.664
			C140.415,42.325,139.915,42.097,139.308,42.097z"/>
		<path fill="#FFFFFF" d="M174.853,8.639c0.652,0,1.185,0.163,1.598,0.489s0.695,0.761,0.848,1.304
			c0.152,0.544,0.174,1.164,0.065,1.859c-0.108,0.696-0.358,1.392-0.75,2.087c-0.088,0.088-0.195,0.088-0.326,0
			c-0.13-0.086-0.218-0.195-0.261-0.326c0.087-0.521-0.098-0.956-0.555-1.304c-0.456-0.348-1.163-0.522-2.119-0.522
			c-1.783,0-3.577,0.664-5.381,1.989c-1.805,1.327-3.555,3.077-5.25,5.25c-1.696,2.175-3.283,4.674-4.762,7.5
			c-1.479,2.827-2.762,5.739-3.848,8.739c-1.087,3-1.946,5.979-2.576,8.936c-0.631,2.957-0.945,5.652-0.945,8.088
			c0,1.304,0.368,1.956,1.108,1.956c0.521,0,1.032-0.218,1.532-0.652s1.076-1.087,1.729-1.956c0.131-0.087,0.25-0.076,0.359,0.032
			c0.107,0.108,0.141,0.251,0.098,0.424c-0.87,1.304-1.892,2.392-3.065,3.261c-1.174,0.871-2.24,1.305-3.196,1.305
			c-0.826,0-1.402-0.238-1.729-0.717c-0.325-0.479-0.488-1.087-0.488-1.826c0-2.044,0.434-4.599,1.304-7.664
			c0.869-3.065,2.032-6.305,3.489-9.718s3.142-6.816,5.055-10.207c1.913-3.392,3.902-6.446,5.968-9.164
			c2.064-2.717,4.142-4.924,6.229-6.62S173.026,8.639,174.853,8.639z"/>
		<path fill="#FFFFFF" d="M170.156,40.401c0.955,0,1.728,0.468,2.314,1.401c0.587,0.936,0.881,2.033,0.881,3.295
			c0,1.783-0.358,3.402-1.076,4.858c-0.718,1.457-1.663,2.718-2.837,3.782c-1.174,1.066-2.522,1.893-4.044,2.479
			c-1.522,0.588-3.065,0.881-4.631,0.881c-0.739,0-1.369-0.086-1.891-0.261c-0.74,2.13-1.402,4.413-1.989,6.849
			c-0.588,2.434-0.881,4.695-0.881,6.782c0,1,0.478,1.392,1.435,1.175c0.348-0.045,0.685-0.131,1.011-0.262s0.642-0.305,0.946-0.521
			c0.173,0,0.271,0.086,0.293,0.261c0.021,0.173-0.011,0.348-0.098,0.522c-0.261,0.13-0.642,0.271-1.142,0.424
			c-0.5,0.151-1.033,0.303-1.598,0.456c-0.565,0.151-1.131,0.271-1.695,0.358c-0.564,0.087-1.044,0.131-1.436,0.131
			c-0.347,0-0.629-0.088-0.848-0.262c-0.217-0.174-0.326-0.435-0.326-0.782c0-2.218,0.359-4.794,1.076-7.729
			c0.718-2.935,1.641-5.968,2.772-9.099c-0.261-0.348-0.414-0.629-0.457-0.848c-0.044-0.173,0.282-0.369,0.979-0.587
			c0.564-1.565,1.174-3.13,1.826-4.696c0.652-1.564,1.305-3.107,1.957-4.631c0.825-1.781,1.206-2.891,1.141-3.326
			c-0.065-0.434-0.337-0.521-0.815-0.26c-0.651,0.348-1.369,0.957-2.151,1.826c-0.088,0.087-0.186,0.055-0.294-0.098
			c-0.109-0.152-0.142-0.271-0.098-0.359c0.304-0.348,0.694-0.728,1.174-1.142c0.478-0.413,0.988-0.792,1.532-1.142
			c0.544-0.348,1.076-0.641,1.599-0.88c0.521-0.239,0.978-0.359,1.369-0.359c0.479,0,0.793,0.207,0.946,0.62
			c0.151,0.414,0.119,0.859-0.099,1.337c-0.565,1.522-1.304,3.239-2.217,5.152c0.434-0.608,0.935-1.228,1.5-1.858
			c0.564-0.63,1.162-1.207,1.793-1.729c0.63-0.521,1.294-0.945,1.989-1.271S169.46,40.401,170.156,40.401z M162.395,55.793
			c1.044,0,2.021-0.205,2.935-0.619c0.913-0.413,1.706-1.021,2.381-1.826c0.674-0.805,1.217-1.804,1.631-3
			c0.412-1.195,0.619-2.576,0.619-4.143c0-1.043-0.195-1.891-0.587-2.543s-0.957-0.979-1.695-0.979
			c-1.001,0-2.196,0.893-3.588,2.674c-1.392,1.783-2.674,4.283-3.848,7.501c-0.131,0.349-0.261,0.707-0.392,1.076
			c-0.13,0.37-0.261,0.75-0.391,1.142C160.154,55.555,161.133,55.793,162.395,55.793z"/>
	</g>
	<g>
		<g>
			<g>
				<path fill="#90CAF9" d="M211.934,66.043h7.959c0-8,15.918-16.042,15.918-16.042l-15.918-31.98l-7.959-15.797l-7.959,15.812
					l-15.917,31.961c0,0,15.917,8.046,15.917,16.046H211.934z"/>
				<path d="M220.933,67.043h-18v-1c0-6.053-11.072-12.991-15.348-15.153l-0.876-0.449l16.365-32.851L211.931,0l8.854,17.57
					l16.363,32.875l-0.866,0.448c-4.274,2.161-15.349,9.098-15.349,15.149V67.043z M204.903,65.043h14.061
					c0.998-7.095,12.225-13.682,15.517-15.471l-15.483-31.106l-7.063-14.02l-7.065,14.039l-15.48,31.084
					C192.678,51.358,203.905,57.947,204.903,65.043z"/>
			</g>
			<rect x="210.933" y="3.043" width="2" height="24"/>
			<path d="M211.934,31.089c-1.526,0-2.769-1.242-2.769-2.768c0-1.527,1.242-2.77,2.769-2.77s2.769,1.242,2.769,2.77
				C214.702,29.847,213.46,31.089,211.934,31.089z M211.934,27.552c-0.424,0-0.769,0.345-0.769,0.77
				c0,0.423,0.345,0.768,0.769,0.768s0.769-0.344,0.769-0.768C212.702,27.897,212.357,27.552,211.934,27.552z"/>
			<g>
				<polygon fill="#2196F3" points="203.975,66.043 196.017,75.043 227.852,75.043 219.893,66.043 				"/>
				<path d="M230.071,76.043h-36.273l9.727-11h16.818L230.071,76.043z M198.235,74.043h27.396l-6.189-7h-15.018L198.235,74.043z"/>
			</g>
		</g>
		<polygon fill="#CCFFFF" points="208.1,14.835 192.267,49.043 194.933,49.043 		"/>
		<path fill="#CCFFFF" d="M205.934,62.376c2.558-0.899-9.917-11.666-9.917-11.666l13.083,9.666L205.934,62.376z"/>
		<polygon fill="#5CADD6" points="205.37,68.043 200.183,73.043 202.933,73.043 		"/>
		<polygon fill="#85C2E0" points="218.766,23.376 231.266,49.043 228.933,49.043 		"/>
	</g>
</g>
</svg>
